
<svg viewBox="0 0 800 800" xmlns="http://www.w3.org/2000/svg">
<rect width="100%" height="100%" fill="white" />
<rect x="80.00000000000006" y="80.00000000000006" width="640" height="640" style="fill-opacity:0;stroke-opacity:0.25;stroke-width:3;stroke:rgb(0,0,0)" />
    <circle id="pt_0" cx="412.38317251821974" cy="172.97165037830746" r="2" fill="black"/><circle id="pt_1" cx="620.3824401124289" cy="250.18763569553997" r="2" fill="black"/><circle id="pt_2" cx="180.38009576933592" cy="211.22948426592316" r="2" fill="black"/><circle id="pt_3" cx="680.0501219798725" cy="388.00130012376076" r="2" fill="black"/><circle id="pt_4" cx="585.6912425904661" cy="566.5840718226689" r="2" fill="black"/><circle id="pt_5" cx="435.72332528064425" cy="404.5246179932498" r="2" fill="black"/><circle id="pt_6" cx="305.7302112410306" cy="295.6199950783815" r="2" fill="black"/><circle id="pt_7" cx="236.4467905725071" cy="450.4556830577891" r="2" fill="black"/><circle id="pt_8" cx="188.22287127154877" cy="625.5588556916423" r="2" fill="black"/><circle id="pt_9" cx="376.81007349724575" cy="610.9074709125941" r="2" fill="black"/>
    <circle id="pt_0" cx="329.5654501274295" cy="399.20417788272437" r="2" fill="red"/><circle id="pt_1" cx="350.93577890474245" cy="491.92149367613365" r="2" fill="red"/><circle id="pt_2" cx="187.65989429104482" cy="335.70652789959865" r="2" fill="red"/><circle id="pt_3" cx="421.9225267105106" cy="288.96290742706316" r="2" fill="red"/><circle id="pt_4" cx="294.0126551584466" cy="177.73460988278913" r="2" fill="red"/><circle id="pt_5" cx="-195.85676383604095" cy="425.59012564823524" r="2" fill="red"/><circle id="pt_6" cx="277.6818764982289" cy="556.0040343962851" r="2" fill="red"/><circle id="pt_7" cx="467.7827718426084" cy="525.2761848130554" r="2" fill="red"/><circle id="pt_8" cx="490.21098643560384" cy="282.0795446340419" r="2" fill="red"/><circle id="pt_9" cx="555.4429531871584" cy="360.12744384618827" r="2" fill="red"/><circle id="pt_10" cx="560.7909735176738" cy="439.20748614507687" r="2" fill="red"/><circle id="pt_11" cx="80.00000000000006" cy="80.00000000000006" r="2" fill="red"/><circle id="pt_12" cx="80.00000000000006" cy="720" r="2" fill="red"/><circle id="pt_13" cx="720" cy="720" r="2" fill="red"/><circle id="pt_14" cx="720" cy="80.00000000000006" r="2" fill="red"/><circle id="pt_15" cx="6139342851.964269" cy="3243882552.0901885" r="2" fill="red"/><circle id="pt_16" cx="6372056602.233115" cy="-2758839371.9037986" r="2" fill="red"/><circle id="pt_17" cx="2416561909.807481" cy="-6509571580.630558" r="2" fill="red"/><circle id="pt_18" cx="-1129765882.0947769" cy="-6851125519.389396" r="2" fill="red"/><circle id="pt_19" cx="-6942407983.053883" cy="131412170.62872909" r="2" fill="red"/><circle id="pt_20" cx="537833536.194441" cy="6922791201.14903" r="2" fill="red"/><circle id="pt_21" cx="1441312596.2286599" cy="6792416463.575612" r="2" fill="red"/><circle id="pt_22" cx="509.10206074888606" cy="720" r="2" fill="red"/><circle id="pt_23" cx="720" cy="523.3297404064183" r="2" fill="red"/><circle id="pt_24" cx="720" cy="288.88097087116125" r="2" fill="red"/><circle id="pt_25" cx="565.2293811244591" cy="80.00000000000006" r="2" fill="red"/><circle id="pt_26" cx="277.8959961797649" cy="80.00000000000006" r="2" fill="red"/><circle id="pt_27" cx="80.00000000000006" cy="360.938440065746" r="2" fill="red"/><circle id="pt_28" cx="80.00000000000006" cy="501.5618748618807" r="2" fill="red"/><circle id="pt_29" cx="290.4227622312703" cy="720" r="2" fill="red"/>
    <line x1="490.21098643560384" y1="282.0795446340419" x2="565.2293811244591" y2="80.00000000000006" style="stroke:blue;stroke-width:1" /><line x1="565.2293811244591" y1="80.00000000000006" x2="277.8959961797649" y2="80.00000000000006" style="stroke:blue;stroke-width:1" /><line x1="277.8959961797649" y1="80.00000000000006" x2="294.0126551584466" y2="177.73460988278913" style="stroke:blue;stroke-width:1" /><line x1="294.0126551584466" y1="177.73460988278913" x2="421.9225267105106" y2="288.96290742706316" style="stroke:blue;stroke-width:1" /><line x1="421.9225267105106" y1="288.96290742706316" x2="490.21098643560384" y2="282.0795446340419" style="stroke:blue;stroke-width:1" /><line x1="555.4429531871584" y1="360.12744384618827" x2="720" y2="288.88097087116125" style="stroke:blue;stroke-width:1" /><line x1="720" y1="288.88097087116125" x2="720" y2="80.00000000000006" style="stroke:blue;stroke-width:1" /><line x1="720" y1="80.00000000000006" x2="565.2293811244591" y2="80.00000000000006" style="stroke:blue;stroke-width:1" /><line x1="565.2293811244591" y1="80.00000000000006" x2="490.21098643560384" y2="282.0795446340419" style="stroke:blue;stroke-width:1" /><line x1="490.21098643560384" y1="282.0795446340419" x2="555.4429531871584" y2="360.12744384618827" style="stroke:blue;stroke-width:1" /><line x1="294.0126551584466" y1="177.73460988278913" x2="277.8959961797649" y2="80.00000000000006" style="stroke:blue;stroke-width:1" /><line x1="277.8959961797649" y1="80.00000000000006" x2="80.00000000000006" y2="80.00000000000006" style="stroke:blue;stroke-width:1" /><line x1="80.00000000000006" y1="80.00000000000006" x2="80.00000000000006" y2="360.938440065746" style="stroke:blue;stroke-width:1" /><line x1="80.00000000000006" y1="360.938440065746" x2="187.65989429104482" y2="335.70652789959865" style="stroke:blue;stroke-width:1" /><line x1="187.65989429104482" y1="335.70652789959865" x2="294.0126551584466" y2="177.73460988278913" style="stroke:blue;stroke-width:1" /><line x1="560.7909735176738" y1="439.20748614507687" x2="720" y2="523.3297404064183" style="stroke:blue;stroke-width:1" /><line x1="720" y1="523.3297404064183" x2="720" y2="288.88097087116125" style="stroke:blue;stroke-width:1" /><line x1="720" y1="288.88097087116125" x2="555.4429531871584" y2="360.12744384618827" style="stroke:blue;stroke-width:1" /><line x1="555.4429531871584" y1="360.12744384618827" x2="560.7909735176738" y2="439.20748614507687" style="stroke:blue;stroke-width:1" /><line x1="467.7827718426084" y1="525.2761848130554" x2="509.10206074888606" y2="720" style="stroke:blue;stroke-width:1" /><line x1="509.10206074888606" y1="720" x2="720" y2="720" style="stroke:blue;stroke-width:1" /><line x1="720" y1="720" x2="720" y2="523.3297404064183" style="stroke:blue;stroke-width:1" /><line x1="720" y1="523.3297404064183" x2="560.7909735176738" y2="439.20748614507687" style="stroke:blue;stroke-width:1" /><line x1="560.7909735176738" y1="439.20748614507687" x2="467.7827718426084" y2="525.2761848130554" style="stroke:blue;stroke-width:1" /><line x1="329.5654501274295" y1="399.20417788272437" x2="350.93577890474245" y2="491.92149367613365" style="stroke:blue;stroke-width:1" /><line x1="350.93577890474245" y1="491.92149367613365" x2="467.7827718426084" y2="525.2761848130554" style="stroke:blue;stroke-width:1" /><line x1="467.7827718426084" y1="525.2761848130554" x2="560.7909735176738" y2="439.20748614507687" style="stroke:blue;stroke-width:1" /><line x1="560.7909735176738" y1="439.20748614507687" x2="555.4429531871584" y2="360.12744384618827" style="stroke:blue;stroke-width:1" /><line x1="555.4429531871584" y1="360.12744384618827" x2="490.21098643560384" y2="282.0795446340419" style="stroke:blue;stroke-width:1" /><line x1="490.21098643560384" y1="282.0795446340419" x2="421.9225267105106" y2="288.96290742706316" style="stroke:blue;stroke-width:1" /><line x1="421.9225267105106" y1="288.96290742706316" x2="329.5654501274295" y2="399.20417788272437" style="stroke:blue;stroke-width:1" /><line x1="329.5654501274295" y1="399.20417788272437" x2="421.9225267105106" y2="288.96290742706316" style="stroke:blue;stroke-width:1" /><line x1="421.9225267105106" y1="288.96290742706316" x2="294.0126551584466" y2="177.73460988278913" style="stroke:blue;stroke-width:1" /><line x1="294.0126551584466" y1="177.73460988278913" x2="187.65989429104482" y2="335.70652789959865" style="stroke:blue;stroke-width:1" /><line x1="187.65989429104482" y1="335.70652789959865" x2="329.5654501274295" y2="399.20417788272437" style="stroke:blue;stroke-width:1" /><line x1="329.5654501274295" y1="399.20417788272437" x2="187.65989429104482" y2="335.70652789959865" style="stroke:blue;stroke-width:1" /><line x1="187.65989429104482" y1="335.70652789959865" x2="80.00000000000006" y2="360.938440065746" style="stroke:blue;stroke-width:1" /><line x1="80.00000000000006" y1="360.938440065746" x2="80.00000000000006" y2="501.5618748618807" style="stroke:blue;stroke-width:1" /><line x1="80.00000000000006" y1="501.5618748618807" x2="277.6818764982289" y2="556.0040343962851" style="stroke:blue;stroke-width:1" /><line x1="277.6818764982289" y1="556.0040343962851" x2="350.93577890474245" y2="491.92149367613365" style="stroke:blue;stroke-width:1" /><line x1="350.93577890474245" y1="491.92149367613365" x2="329.5654501274295" y2="399.20417788272437" style="stroke:blue;stroke-width:1" /><line x1="277.6818764982289" y1="556.0040343962851" x2="80.00000000000006" y2="501.5618748618807" style="stroke:blue;stroke-width:1" /><line x1="80.00000000000006" y1="501.5618748618807" x2="80.00000000000006" y2="720" style="stroke:blue;stroke-width:1" /><line x1="80.00000000000006" y1="720" x2="290.4227622312703" y2="720" style="stroke:blue;stroke-width:1" /><line x1="290.4227622312703" y1="720" x2="277.6818764982289" y2="556.0040343962851" style="stroke:blue;stroke-width:1" /><line x1="277.6818764982289" y1="556.0040343962851" x2="290.4227622312703" y2="720" style="stroke:blue;stroke-width:1" /><line x1="290.4227622312703" y1="720" x2="509.10206074888606" y2="720" style="stroke:blue;stroke-width:1" /><line x1="509.10206074888606" y1="720" x2="467.7827718426084" y2="525.2761848130554" style="stroke:blue;stroke-width:1" /><line x1="467.7827718426084" y1="525.2761848130554" x2="350.93577890474245" y2="491.92149367613365" style="stroke:blue;stroke-width:1" /><line x1="350.93577890474245" y1="491.92149367613365" x2="277.6818764982289" y2="556.0040343962851" style="stroke:blue;stroke-width:1" />
    <line id="dedge_5" stroke-dasharray="10,10" x1="435.72332528064425" y1="404.5246179932498" x2="236.4467905725071" y2="450.4556830577891" style="stroke:grey;stroke-width:1" /><line id="dedge_8" stroke-dasharray="10,10" x1="236.4467905725071" y1="450.4556830577891" x2="305.7302112410306" y2="295.6199950783815" style="stroke:grey;stroke-width:1" /><line id="dedge_11" stroke-dasharray="10,10" x1="305.7302112410306" y1="295.6199950783815" x2="435.72332528064425" y2="404.5246179932498" style="stroke:grey;stroke-width:1" /><line id="dedge_12" stroke-dasharray="10,10" x1="305.7302112410306" y1="295.6199950783815" x2="412.38317251821974" y2="172.97165037830746" style="stroke:grey;stroke-width:1" /><line id="dedge_13" stroke-dasharray="10,10" x1="412.38317251821974" y1="172.97165037830746" x2="180.38009576933592" y2="211.22948426592316" style="stroke:green;stroke-width:1" /><line id="dedge_14" stroke-dasharray="10,10" x1="180.38009576933592" y1="211.22948426592316" x2="305.7302112410306" y2="295.6199950783815" style="stroke:grey;stroke-width:1" /><line id="dedge_15" stroke-dasharray="10,10" x1="180.38009576933592" y1="211.22948426592316" x2="188.22287127154877" y2="625.5588556916423" style="stroke:green;stroke-width:1" /><line id="dedge_17" stroke-dasharray="10,10" x1="236.4467905725071" y1="450.4556830577891" x2="180.38009576933592" y2="211.22948426592316" style="stroke:grey;stroke-width:1" /><line id="dedge_18" stroke-dasharray="10,10" x1="236.4467905725071" y1="450.4556830577891" x2="188.22287127154877" y2="625.5588556916423" style="stroke:grey;stroke-width:1" /><line id="dedge_19" stroke-dasharray="10,10" x1="188.22287127154877" y1="625.5588556916423" x2="376.81007349724575" y2="610.9074709125941" style="stroke:green;stroke-width:1" /><line id="dedge_20" stroke-dasharray="10,10" x1="376.81007349724575" y1="610.9074709125941" x2="236.4467905725071" y2="450.4556830577891" style="stroke:grey;stroke-width:1" /><line id="dedge_21" stroke-dasharray="10,10" x1="376.81007349724575" y1="610.9074709125941" x2="585.6912425904661" y2="566.5840718226689" style="stroke:green;stroke-width:1" /><line id="dedge_23" stroke-dasharray="10,10" x1="435.72332528064425" y1="404.5246179932498" x2="376.81007349724575" y2="610.9074709125941" style="stroke:grey;stroke-width:1" /><line id="dedge_25" stroke-dasharray="10,10" x1="620.3824401124289" y1="250.18763569553997" x2="412.38317251821974" y2="172.97165037830746" style="stroke:green;stroke-width:1" /><line id="dedge_26" stroke-dasharray="10,10" x1="412.38317251821974" y1="172.97165037830746" x2="435.72332528064425" y2="404.5246179932498" style="stroke:grey;stroke-width:1" /><line id="dedge_27" stroke-dasharray="10,10" x1="680.0501219798725" y1="388.00130012376076" x2="620.3824401124289" y2="250.18763569553997" style="stroke:green;stroke-width:1" /><line id="dedge_28" stroke-dasharray="10,10" x1="620.3824401124289" y1="250.18763569553997" x2="435.72332528064425" y2="404.5246179932498" style="stroke:grey;stroke-width:1" /><line id="dedge_30" stroke-dasharray="10,10" x1="585.6912425904661" y1="566.5840718226689" x2="680.0501219798725" y2="388.00130012376076" style="stroke:green;stroke-width:1" /><line id="dedge_31" stroke-dasharray="10,10" x1="680.0501219798725" y1="388.00130012376076" x2="435.72332528064425" y2="404.5246179932498" style="stroke:grey;stroke-width:1" /><line id="dedge_32" stroke-dasharray="10,10" x1="435.72332528064425" y1="404.5246179932498" x2="585.6912425904661" y2="566.5840718226689" style="stroke:grey;stroke-width:1" />
    
</svg>